# xmcd
#
# Track frame offsets:
#	150
#	13998
#	26796
#	39669
#	50517
#	63090
#	76863
#	86811
#	99159
#	112107
#
# Disc length: 1675 seconds
#
# Revision: 0
# Processed by: cddbd v1.5.2PL0 Copyright (c) Steve Scherf et al.
# Submitted via: EasyCDDAExtractor 12.0.0.1
#
DISCID=7b06890a
DTITLE=Yolandita Monge - Reflexiones
DYEAR=1976
DGENRE=Latin
TTITLE0=Paginas Del Alma
TTITLE1=Es La Lluvia Que Cayendo Va
TTITLE2=Guardame
TTITLE3=Yo Creo Que Es Mejor Decir Adios
TTITLE4=El Sueño De Tu Piel
TTITLE5=Soy Un Poco De Ti
TTITLE6=Despues Viene El Vacio
TTITLE7=De Que Me Sirve Todo Esto
TTITLE8=Y Todavia Te Quiero
TTITLE9=Los Dos Y La Ventana
EXTD=
EXTT0=
EXTT1=
EXTT2=
EXTT3=
EXTT4=
EXTT5=
EXTT6=
EXTT7=
EXTT8=
EXTT9=
PLAYORDER=
